# xmcd
#
# Track frame offsets:
#	150
#	17360
#	34688
#	63594
#
# Disc length: 1790 seconds
# Revision: 1
# Processed by: cddbd v1.5.2PL0 Copyright (c) Steve Scherf et al.
# Submitted via: dBpowerAMP V12.0
#
DISCID=2706fc04
DTITLE=Dixie Chicks - Landslide
DYEAR=2002
DGENRE=Country
TTITLE0=Landslide (Sheryl Crow Remix)
TTITLE1=Landslide
TTITLE2=Landslide (Live from the Kodak Theatre
TTITLE3=DATA
EXTD=
EXTT0=
EXTT1=
EXTT2=
EXTT3=
PLAYORDER=
